<?xml version="1.0" encoding="UTF-8" standalone="no"?>
<!-- Generator: Adobe Adobe Illustrator 24.2.0, SVG Export Plug-In . SVG Version: 6.00 Build 0)  -->

<svg
   version="1.1"
   id="Layer_1"
   x="0px"
   y="0px"
   width="700.00128"
   height="260.20099"
   viewBox="0 0 700.00128 260.20099"
   xml:space="preserve"
   sodipodi:docname="uou-white.svg"
   inkscape:export-filename="Uou! hz.webp"
   inkscape:export-xdpi="96"
   inkscape:export-ydpi="96"
   inkscape:version="1.2.2 (b0a8486541, 2022-12-01)"
   xmlns:inkscape="http://www.inkscape.org/namespaces/inkscape"
   xmlns:sodipodi="http://sodipodi.sourceforge.net/DTD/sodipodi-0.dtd"
   xmlns="http://www.w3.org/2000/svg"
   xmlns:svg="http://www.w3.org/2000/svg"><defs
   id="defs399" /><sodipodi:namedview
   id="namedview397"
   pagecolor="#ffffff"
   bordercolor="#666666"
   borderopacity="1.0"
   inkscape:showpageshadow="2"
   inkscape:pageopacity="0.0"
   inkscape:pagecheckerboard="0"
   inkscape:deskcolor="#d1d1d1"
   showgrid="false"
   inkscape:zoom="0.39583333"
   inkscape:cx="1165.8947"
   inkscape:cy="458.52632"
   inkscape:window-width="1920"
   inkscape:window-height="1003"
   inkscape:window-x="0"
   inkscape:window-y="0"
   inkscape:window-maximized="1"
   inkscape:current-layer="g392" />
<style
   type="text/css"
   id="style382">
	.st0{fill:#0626EE;}
	.st1{fill:#EAEAEA;}
	.st2{fill:#A754FF;}
	.st3{fill:#000C5C;}
	.st4{fill:none;stroke:#FFFFFF;stroke-width:2.8765;stroke-miterlimit:10;}
	.st5{fill:none;stroke:#FFFFFF;stroke-width:1.9177;stroke-linecap:round;stroke-linejoin:round;stroke-miterlimit:10;}
	.st6{fill:#FFFFFF;}
	.st7{fill:none;stroke:#FFFFFF;stroke-width:4.3841;stroke-miterlimit:10;}
	.st8{fill:none;stroke:#FFFFFF;stroke-width:2.9228;stroke-linecap:round;stroke-linejoin:round;stroke-miterlimit:10;}
	.st9{fill:#052BFE;}
	.st10{fill:none;stroke:#FFFFFF;stroke-width:4.7942;stroke-miterlimit:10;}
	.st11{fill:none;stroke:#D6D6D6;stroke-width:1.9177;stroke-miterlimit:10;}
	.st12{fill:#0626EE;stroke:#FFFFFF;stroke-width:2.9228;stroke-linecap:round;stroke-linejoin:round;stroke-miterlimit:10;}
	.st13{fill:none;stroke:#FFFFFF;stroke-linecap:round;stroke-linejoin:round;stroke-miterlimit:10;}
	.st14{fill:#0626EE;stroke:#FFFFFF;stroke-miterlimit:10;}
	.st15{fill:none;stroke:#0626EE;stroke-miterlimit:10;}
	.st16{fill:none;stroke:#FFFFFF;stroke-miterlimit:10;}
	.st17{fill:#EBEBEB;}
	.st18{fill:none;stroke:#0626EE;stroke-width:6;stroke-miterlimit:10;}
</style>
<g
   id="g394"
   transform="translate(-23.1,-27)">
	<g
   id="g392">
		<path
   class="st1"
   d="m 218.02287,27 h -64.75512 c -0.0374,0 -0.0635,0.02615 -0.0635,0.06351 v 155.09626 c 0,35.69489 -10.30314,46.6854 -32.27296,46.6854 -22.99342,0 -32.949138,-15.45097 -32.949138,-47.03656 V 27.063507 C 87.982142,27.02615 87.955992,27 87.918635,27 H 23.163507 C 23.12615,27 23.1,27.02615 23.1,27.063507 V 182.84714 c 0,49.08375 14.427386,72.77948 44.290804,90.27763 14.763601,8.58097 32.949126,12.70148 54.231576,12.70148 38.4556,0 66.94427,-16.13835 83.76999,-43.25227 8.58097,-13.72507 12.70148,-33.6365 12.70148,-60.07799 V 27.063507 C 218.09011,27.022414 218.04902,27 218.02287,27 Z"
   id="path384"
   style="fill:#eaeaea;fill-opacity:1;stroke-width:0.373573" />
		<path
   class="st1"
   d="m 342.01172,84.328499 c -56.99229,0 -102.64289,42.213741 -102.64289,101.268141 0,58.35209 44.62701,101.26815 102.64289,101.26815 57.3285,0 102.64289,-42.22869 102.64289,-101.95552 0,-57.67966 -45.31439,-100.580771 -102.64289,-100.580771 z m 0,149.328291 c -25.75412,0 -45.66182,-21.96982 -45.66182,-48.06015 0,-26.09033 20.25886,-48.06015 45.3144,-48.06015 26.7777,0 46.00176,22.65719 46.00176,48.06015 -0.004,25.40296 -18.87664,48.06015 -45.65434,48.06015 z"
   id="path386"
   style="fill:#eaeaea;fill-opacity:1;stroke-width:0.373573" />
		<path
   class="st1"
   d="m 640.58987,90.51113 h -23.7966 C 615.43346,55.578328 586.26863,27.661224 550.85765,28.307505 516.60101,28.916429 489.24053,56.654218 487.34652,90.51113 h -23.75923 c -0.0374,0 -0.0635,0.02615 -0.0635,0.0523 v 118.37778 c 0,54.23158 33.29655,78.25979 73.46685,78.25979 25.7429,0 40.85393,-8.91719 49.08374,-26.42655 h 0.68737 v 20.19536 c 0,0.0261 0.0262,0.0523 0.0635,0.0523 h 53.76462 c 0.0373,0 0.0635,-0.0262 0.0635,-0.0523 V 90.559694 c 0.004,-0.02615 -0.0224,-0.04856 -0.0635,-0.04856 z m -149.45531,31.80599 c -5.36451,0 -9.72037,-4.34091 -9.72037,-9.72036 0,-5.36451 4.35586,-9.72036 9.72037,-9.72036 5.37945,0 9.72035,4.35585 9.72035,9.72036 0,5.37945 -4.3409,9.72036 -9.72035,9.72036 z m 92.60871,-31.80599 c -0.0374,0 -0.0635,0.02615 -0.0635,0.0523 v 105.67631 c 0,23.34457 -10.99051,37.757 -32.60918,37.757 -21.6336,0 -30.55078,-11.66668 -30.55078,-36.73341 V 90.559694 c 0,-0.02615 -0.0374,-0.0523 -0.0635,-0.0523 H 495.0795 c 1.32244,-29.176044 24.64087,-52.699929 53.72352,-54.347386 31.88445,-1.815565 58.23628,22.903755 60.16765,54.347386 h -25.22738 z m 29.82233,31.80599 c -5.37945,0 -9.72037,-4.34091 -9.72037,-9.72036 0,-5.36451 4.34092,-9.72036 9.72037,-9.72036 5.36451,0 9.72036,4.35585 9.72036,9.72036 0.004,5.37945 -4.35211,9.72036 -9.72036,9.72036 z"
   id="path388"
   style="fill:#eaeaea;fill-opacity:1;stroke-width:0.373573" />
		<path
   class="st1"
   d="m 723.0374,27 h -58.57249 c -0.0374,0 -0.0635,0.02615 -0.0635,0.06351 v 170.13257 c 0,0.0374 0.0261,0.0635 0.0635,0.0635 h 58.57249 c 0.0374,0 0.0635,-0.0262 0.0635,-0.0635 V 27.063507 C 723.10464,27.022414 723.07849,27 723.0374,27 Z m 0,195.66254 h -58.57249 c -0.0374,0 -0.0635,0.0262 -0.0635,0.0635 v 58.23628 c 0,0.0262 0.0261,0.0523 0.0635,0.0523 h 58.57249 c 0.0374,0 0.0635,-0.0261 0.0635,-0.0523 v -58.23255 c 0.004,-0.0411 -0.0224,-0.0672 -0.0635,-0.0672 z"
   id="path390"
   style="fill:#eaeaea;fill-opacity:1;stroke-width:0.373573" />
	</g>
</g>
</svg>
